/* XPM */
static char *fbcf92d2aa4b46159a887a68743aa2f5foDe0wIwXWVPuIb7[] = {
/* columns rows colors chars-per-pixel */
"50 50 241 2 ",
"   c #0C0000",
".  c #080408",
"X  c #140000",
"o  c #1B0001",
"O  c #15040D",
"+  c #1C030A",
"@  c #1A0A0B",
"#  c #0E0911",
"$  c #1C0C13",
"%  c #190A16",
"&  c #0E1114",
"*  c #14161A",
"=  c #1B131B",
"-  c #16191C",
";  c #1C1B1C",
":  c #1B1311",
">  c #230001",
",  c #2C0103",
"<  c #290907",
"1  c #24030A",
"2  c #2B040B",
"3  c #260A0C",
"4  c #2B0B0D",
"5  c #340303",
"6  c #3C0201",
"7  c #330A06",
"8  c #3C0905",
"9  c #34040B",
"0  c #3C050A",
"q  c #350A0C",
"w  c #3B0A0C",
"e  c #2D110D",
"r  c #33110D",
"t  c #3D120D",
"y  c #2D0511",
"u  c #220C13",
"i  c #2C0C13",
"p  c #230E1A",
"a  c #280C17",
"s  c #330610",
"d  c #340B12",
"f  c #3B0C13",
"g  c #3B0B16",
"h  c #231214",
"j  c #2B1215",
"k  c #23151C",
"l  c #2B141C",
"z  c #2C1C1E",
"x  c #201815",
"c  c #331214",
"v  c #3A1216",
"b  c #33131A",
"n  c #3D131A",
"m  c #351D1E",
"M  c #3D1C1C",
"N  c #27241F",
"B  c #1B1622",
"V  c #1C1C23",
"C  c #161C23",
"Z  c #241624",
"A  c #2C1421",
"S  c #241B24",
"D  c #2B1C23",
"F  c #241E29",
"G  c #2B1E28",
"H  c #3A1621",
"J  c #321C22",
"K  c #3B1C23",
"L  c #341E2A",
"P  c #381926",
"I  c #0F202A",
"U  c #1B232C",
"Y  c #1C2729",
"T  c #1B2730",
"R  c #1D2A33",
"E  c #152C34",
"W  c #222125",
"Q  c #24242B",
"!  c #2B242C",
"~  c #2B2B2B",
"^  c #272828",
"/  c #322226",
"(  c #33222B",
")  c #3C232A",
"_  c #3C2A2C",
"`  c #382728",
"'  c #272530",
"]  c #212C34",
"[  c #2D2B33",
"{  c #2C2C39",
"}  c #292633",
"|  c #342432",
" . c #342C34",
".. c #392C34",
"X. c #382F3C",
"o. c #243234",
"O. c #24323C",
"+. c #2C343C",
"@. c #3D3235",
"#. c #32323B",
"$. c #3A333C",
"%. c #323B3E",
"&. c #363034",
"*. c #3C332E",
"=. c #440202",
"-. c #4C0203",
";. c #420B05",
":. c #4B0905",
">. c #43050B",
",. c #4C040A",
"<. c #440B0C",
"1. c #4C0B0C",
"2. c #540202",
"3. c #5C0202",
"4. c #540A05",
"5. c #5B0904",
"6. c #54050A",
"7. c #5C040A",
"8. c #520C0C",
"9. c #5B0B0B",
"0. c #44110C",
"q. c #4C110D",
"w. c #4B1503",
"e. c #55130A",
"r. c #430612",
"t. c #430C12",
"y. c #4B0D13",
"u. c #460B16",
"i. c #540711",
"p. c #530C12",
"a. c #5C0B11",
"s. c #530E19",
"d. c #5B0E19",
"f. c #5D0713",
"g. c #461214",
"h. c #4B1314",
"j. c #43151B",
"k. c #4B141B",
"l. c #4C191C",
"z. c #43191C",
"x. c #541213",
"c. c #5D1214",
"v. c #53121B",
"b. c #5C131A",
"n. c #5A191D",
"m. c #640202",
"M. c #6C0102",
"N. c #640903",
"B. c #6B0903",
"V. c #64040A",
"C. c #6B0309",
"Z. c #640A0C",
"A. c #6A0A0C",
"S. c #730203",
"D. c #7A0104",
"F. c #73040C",
"G. c #7B050C",
"H. c #730A0B",
"J. c #760809",
"K. c #71120E",
"L. c #630411",
"P. c #630B14",
"I. c #690E17",
"U. c #7D0B11",
"Y. c #730A11",
"T. c #63151B",
"R. c #63191C",
"E. c #6C141B",
"W. c #4A1621",
"Q. c #431B22",
"!. c #4B1C22",
"~. c #451623",
"^. c #551D22",
"/. c #5A1B23",
"(. c #511C29",
"). c #561720",
"_. c #641B21",
"`. c #691522",
"'. c #412424",
"]. c #43242B",
"[. c #4B232C",
"{. c #4A2A29",
"}. c #532125",
"|. c #5C2226",
" X c #5D2529",
".X c #54292C",
"XX c #59272B",
"oX c #452C32",
"OX c #4A2D33",
"+X c #4A2732",
"@X c #592C34",
"#X c #443234",
"$X c #4B3134",
"%X c #44333B",
"&X c #4A343B",
"*X c #453A3C",
"=X c #4B383D",
"-X c #513334",
";X c #54333A",
":X c #51393D",
">X c #5B3435",
",X c #6A2126",
"<X c #64272E",
"1X c #632226",
"2X c #692D35",
"3X c #63363B",
"4X c #202F42",
"5X c #2B3542",
"6X c #2A3A44",
"7X c #2D3E48",
"8X c #353641",
"9X c #343A44",
"0X c #3B3B42",
"qX c #343F4A",
"wX c #3B3B47",
"eX c #443941",
"rX c #4B3C44",
"tX c #4B3A46",
"yX c #5A3E45",
"uX c #613840",
"iX c #2F404A",
"pX c #36424C",
"aX c #384C56",
"sX c #49444E",
"dX c #48454B",
"fX c #564249",
"gX c #484956",
"hX c #5B4752",
"jX c #584A55",
"kX c #515058",
"lX c #69434A",
"zX c #764B55",
"xX c #634E57",
"cX c #485E69",
"vX c #625B62",
"bX c #50606D",
"nX c #820404",
"mX c #830109",
"MX c #850B0A",
"NX c #800710",
"BX c #874A53",
/* pixels */
"; W S ; - Y R o.!  .5X4X{ #.o.o.+.%.%.+.#.8XwX8X8X9X6XO.9X5X5X5X%.Q U ] +.O.o.] o.^ ; ^ * Y & ; - * ",
"    X           X J 9XqXrX              X     X         sX8XwX[                     X     X         ",
"8 8 8 8 =.:.:.:.8.<.( eXf y.x.,.:.1.1.>.=.=.,.,.:.1.=.t.2 ` rXb 1.9.8.8.=.1.>.>.1.=.1.=.>.5 7 5 5 6 ",
"=.6 6 =.2.3.m.m.A.-.A =X>.7.m.m.m.V.Z.7.3.3.m.m.3.3.3.7.w OXfX> 5.M.m.m.3.3.3.3.m.3.m.5.7.-.=.=.-.-.",
",.=.=.:.5.3.m.M.m.i.A tX5 7.H.C.C.m.3.m.N.3.m.m.m.3.M.2.f ].fXv 2.m.m.m.C.3.m.M.m.m.m.m.3.7.7.-.2.2.",
",.=.6 6 =.-.2.3.7.,.G tXk.6.7.3.m.3.2.2.2.5.3.3.9.2.7.T.2 &XhX2 8.5.5.2.N.7.7.3.7.7.7.7.6.2.6.2.2.-.",
"r.w 7 7 7 8 ;.<.y.9 G X.o u.s.p.:.p.h.<.>.1.x.q.;.0.1.t.3 @.jX1 g.1.<.8 1.8.1.=.1.>.>.y.h.=.1.1.>.>.",
"o o X X X X X X o X F 8X$.  o o o o o o o > > o X o o o   ^ jXu o o X X o o o o o X X o o o > > o o ",
"D k k ( ( l ` / D ! +.R cXbXgXsX*X*._ #X$X;X+X) ` #X%X*X$.dXvXsX%XeXN ~ %X@.@...&.[ C V z 3 '.m / D ",
"X   + + o o o o X X   . E aXwXO @ o X > , s 2 2 > 1 o > o o > o 1 X > o X o +     0X7XU $ o , o o X ",
";.6 >.i.i.6.9.9.6.,.=.t O ! lXt.8.7.7.Z.7.P.P.P.a.a.-.4.9.9.2.Z.Z.V.K.3.5.P.6.1.t.l * * w ,.1.1.=.=.",
"-.-.-.L.A.m.H.C.m.m.A.-.o $ ~.1.C.S.S.S.m.m.m.C.C.M.m.m.M.J.M.D.S.G.nXD.D.D.D.m.=.v dX&.>.6.7.2.2.3.",
"-.2.2.7.m.m.M.m.M.m.C.6.2 ) uX,.U.mXS.S.M.C.M.m.m.m.C.m.M.S.S.S.M.G.D.nXD.S.D.C.-.d 0X$.t.2.3.7.2.5.",
"2.-.6.6.7.5.3.3.7.P.V.,.i %XyXu.A.S.m.m.m.Z.7.3.2.-.A.m.N.m.C.M.m.C.m.B.C.C.m.7.>.b #.dXt.-.a.2.=.=.",
"t.0 >.1.1.:.;.w.1.5 ).g % $...3 <.8.8.x.1.8.8.:.0.8 8.9.q.<.8.6.d.-.w.w.:.x.x.;., p 9XgX4 5 0.6 5 8 ",
"X o o > > > o o o > o o G $.eX  o o o o o o o o o o > > o o > > > > o o > > o o X l dX' X o o o X X ",
"( z K ].+Xy [.[.!.Q.[.].) yX&X&X$X{._ #X` / pXkX:X>X>X.X@Xz.].-X[.@X.X{..X'.{.'.:X=XhXrXyXoX_ ) J ( ",
"sX% j 2 b 2 , t.0 f f j.0 <.w f v > d 4 c   5XgXi k.k.0 1.v.g.> w y.t.<.y.0 g.w f q , f f n , + u | ",
"rX+ q 6 ,.6.-.5.2.-.-.a.7.7.2.2.Z.V.P.2.a.>. .rXy.7.P.I.F.C.Z.Z.V.A.V.V.A.m.A.m.3.7.2.7.6.2.6.y.+ = ",
"J 3 , -.5.3.H.B.N.2.2.m.M.S.3.M.S.S.m.C.C.,.A xX6.M.C.M.S.mXS.M.M.S.S.M.S.M.D.M.M.M.M.m.M.3.C.a.i k ",
"&X1 >.2.3.m.m.B.3.2.3.m.M.S.M.J.m.m.m.N.m.s.D ! 1.m.m.M.D.MXS.S.M.M.M.M.M.M.J.M.S.M.m.m.3.m.m.9.1 Z ",
"..1 0 6.7.5.N.5.2.5.2.5.m.M.A.A.2.2.2.8.7.>.F $.5 9.9.5.m.H.M.B.3.3.N.3.3.m.A.m.3.2.2.2.-.2.-.1.u = ",
"[ O d t.r.y.1.:.8.x.<.1.8.:.1.>.<.8 , 0.g.y B { 3 w 5 >.1.8.8.1.1.1.q.1.1.1.8.1.<.;.w 8 <.<.<.w @ O ",
"eX  o > > > > , > o o o > > > > o o o o o o | ! o o o > > > > o o o > > > > > > > > o o o o > o X $ ",
"H Q.j.j.~.j.v 9 ;X:XJ OX.XXX2X/.|. Xk.^.2Xz.+XzX].>Xj.^. XXX+XA oX;X!.}.<Xv.^.h.g.k.k.v.k.t.j.j.K ) ",
"u.g.w <.g.k.v.k.1 =XeXl 9 n.b.T.T.E.`.d._.v.>.^.t.l.y.R.-.y.b %XyXb !.v._.a.T.c.x.n.T.b.d.v.l.g.w 7 ",
"-.=.6 =.-.7.7.f.t.;X) d ,.Z.A.H.M.U.F.C.A.5.2.-.4.-.Z.m.F.E.j.H lX>.7.V.F.F.C.m.m.Z.A.V.7.2.=.=.:.-.",
"2.2.-.4.2.C.m.V.y.;X]., 6.C.m.S.S.D.D.S.M.3.m.3.2.3.H.D.mXC.>.2 XXx.I.F.M.D.S.J.m.m.C.m.3.2.=.=.-.-.",
"2.2.-.4.2.m.3.7.w OXoXy ,.m.S.S.S.M.G.S.m.m.3.m.3.3.m.M.mXF.,.> .Xw 6.3.C.S.M.M.m.m.C.C.M.m.3.7.-.-.",
",.,.:.e.2.9.2.1.v #X^ a y.2.A.m.Z.3.V.m.3.Z.3.9.-.-.5.3.m.P.f 1 -X4 t.p.6.5.3.Z.-.2.6.7.7.7.6.2.-.:.",
"y d w t.t.t.w 2 u 0X#.# j f 5 h.l.g.>.y.y.s.v.k.f q , g.0 v   = ..l 1 d 0 t.8 t 7 q q 7 0 w w 9 7 7 ",
"p A f t.j.g n i l ..sX .u i v q v , 5 0 0 r.5 g + k h j i j $ S L tXK 2 d , r e e e 3 4 i 2 2 , 3 3 ",
"U | v g.W.W.(.~.[.;XyXH n j.k.|.^./.<X<X1Xv.,.(.L Z rX..~.!.> d zXzX@X^.l.@X3X.X}.}.k.k.(.W.!.~.J ( ",
"] = w x./.y././.^.0 y.).n.=.8.R.T.T.T.c.c.c.T./.H Z 0X$ l.p.,._.s.,X6.R.BX2X<.1X,XR.T.p.x.b.x.l.p ' ",
"! @ ;.2.2.2.Z.2.-.4.7.3.5.N.V.m.M.B.C.A.A.m.A.2.j.].=X< ,.3.3.C.F.M.3.3.m.3.3.2.N.m.B.m.m.m.3.:.1 F ",
"D o =.5.3.3.m.m.3.m.3.m.B.M.M.S.S.S.M.C.m.m.M.7.5 < {.w Z.M.D.S.D.S.S.M.M.M.M.J.M.M.S.S.J.M.B.-.3 B ",
"L 2 -.3.m.m.m.m.3.3.M.M.M.S.D.S.M.m.m.N.N.N.C.7.w < M <.C.G.M.J.J.S.M.C.m.M.m.S.D.M.M.M.M.3.5.=.+ = ",
"L i 0 =.,.,.6.6.4.-.9.P.Z.V.7.7.7.2.8.=.6 :.6.y.i J $X, a.V.7.9.2.P.6.9.6.f.6.L.I.7.Z.6.9.6.>.7 O B ",
"{ % X + u + o + 1 o X o 2 , + o o 1 1 o X o o O # { #.= + 2 X o 2 q > , 1 1 1 2 , > < o > + X X # C ",
"| S $ l % G k O A A ( ) m h %.0X! J a l J D (  .! $.X.tXP J : x h b 1 a ( G Z O h z h @ $ $ l k k S ",
"M 4 > o > > o o o > , , > j ] %._ o o > > > , > d .XBX2Xs.5 o > > , , 2 / |  .l + > o o o o o o 1 i ",
"8 8 ;.;.y.t.<.;.0 <.p.8.=.d Y %.3 g.p.9.9.6.8.1.1.6.P.V.L.P.8.q.,.p.b.y.i _ / b w <.<.>.<.t.w t.5 5 ",
"6 :.4.2.7.2.2.-.5.5.C.C.V.y.W 0Xq 9.C.G.G.C.2.3.N.C.H.F.C.A.3.3.m.m.K.9.w '.Q.f 6.N.V.7.2.-.=.=.:.=.",
"=.-.2.2.m.m.3.3.3.m.m.M.F.d.G 0Xw 7.NXmXD.U.m.3.M.M.S.S.S.C.M.M.M.M.J.Z.g.M @X<.3.m.M.m.3.3.-.-.-.-.",
"=.-.-.2.m.m.3.2.3.N.M.M.C.6.u ! 5 7.C.S.M.J.m.3.B.m.M.m.C.M.S.S.S.J.C.2.5 4 -X5 2.3.3.3.7.6.2.,.-.-.",
"=.:.=.=.2.7.2.-.=.2.2.3.V.x.D  .7 8.2.m.A.3.2.2.5.2.N.3.V.3.C.C.C.m.C.6.7 m $Xv p.2.2.-.-.-.=.6 6 6 ",
"5 5 7 5 0 r.>.w w q 5 6 :.g.F 8X1 <.>.1.8.=.1.;.e.e.4.:.y.1.9.2.c.2.a.1.d J H 2 t.>.8 8 0 w 7 7 < < ",
"X X     o + X X   X   X o + C qX( X X o o o o o o o o o o o o o o o , o u S | a > o o X X o X       ",
"S V W W ' Q V - U Q Q ~ ! } ] 5X9X{ {  .{ #.$.#.#.[ Q } 0X#.!  .[ * F ! +.{ +.8XB ! ! W V V V V & * ",
"U U R T R T R U O.O.O.5XO.5X6XpXqX6X6X6XO.6XiXiXI R O.6XiX6X6XaX7XO.6XO.6X7XiX7XO.6XO.] R R T U C U "
};
