/* XPM */
static char *_67b3ced281b4a3f85e2a08ea08967f3a5kZTnhX5GFc8gei[] = {
/* columns rows colors chars-per-pixel */
"50 50 241 2 ",
"   c #490808",
".  c #5C0100",
"X  c #5C0C0B",
"o  c #580706",
"O  c #5A0E12",
"+  c #591817",
"@  c #4F1411",
"#  c #640100",
"$  c #6C0101",
"%  c #6C0A05",
"&  c #650B0B",
"*  c #6B0D0C",
"=  c #680707",
"-  c #730101",
";  c #790100",
":  c #740C0C",
">  c #760709",
",  c #69120C",
"<  c #75110C",
"1  c #690E13",
"2  c #7B0D13",
"3  c #6A1515",
"4  c #731314",
"5  c #7B1415",
"6  c #74141A",
"7  c #7C1519",
"8  c #741B1C",
"9  c #7A1C1B",
"0  c #79221E",
"q  c #65241D",
"w  c #7A1E21",
"e  c #6A1E22",
"r  c #582324",
"t  c #692727",
"y  c #782627",
"u  c #763335",
"i  c #552220",
"p  c #7E453E",
"a  c #5A4E3E",
"s  c #773A42",
"d  c #7A4848",
"f  c #795555",
"g  c #725551",
"h  c #6C625D",
"j  c #775961",
"k  c #7A7A79",
"l  c #786865",
"z  c #820001",
"x  c #890907",
"c  c #980607",
"v  c #831614",
"b  c #8C1C1B",
"n  c #881817",
"m  c #941B16",
"M  c #941C1C",
"N  c #9C1C1C",
"B  c #991615",
"V  c #92130F",
"C  c #A90B09",
"Z  c #BA0604",
"A  c #B30C06",
"S  c #BF0B06",
"D  c #B40D0B",
"F  c #BB0C0C",
"G  c #B40607",
"H  c #A9140D",
"J  c #B4130D",
"K  c #BB120D",
"L  c #AB0D12",
"P  c #BE0D13",
"I  c #B40D13",
"U  c #A41413",
"Y  c #AB1413",
"T  c #A41B16",
"R  c #AB1A16",
"E  c #A2161B",
"W  c #A41B1B",
"Q  c #AC1A1A",
"!  c #AB141D",
"~  c #B41414",
"^  c #BB1413",
"/  c #B31A14",
"(  c #BC1A15",
")  c #B3151A",
"_  c #BB151A",
"`  c #B31A1B",
"'  c #BC1B1A",
"]  c #89251D",
"[  c #91211D",
"{  c #9D231D",
"}  c #AB211E",
"|  c #A5231B",
" . c #B5221A",
".. c #891C22",
"X. c #981D24",
"o. c #A61C22",
"O. c #BC1A21",
"+. c #B61B22",
"@. c #842322",
"#. c #8C2423",
"$. c #882A27",
"%. c #942323",
"&. c #9C2424",
"*. c #95232A",
"=. c #98292A",
"-. c #8A342A",
";. c #952C31",
":. c #8C3533",
">. c #8A3B38",
",. c #973838",
"<. c #8D302E",
"1. c #A22323",
"2. c #AB2323",
"3. c #AB242A",
"4. c #A62929",
"5. c #B52527",
"6. c #AC3434",
"7. c #C40304",
"8. c #CB0404",
"9. c #C40B04",
"0. c #CE0A04",
"q. c #CC060B",
"w. c #C40C0B",
"e. c #CC0B0B",
"r. c #C4040A",
"t. c #D20404",
"y. c #D40B06",
"u. c #DB0B04",
"i. c #D3060A",
"p. c #DB050B",
"a. c #D30B0C",
"s. c #DB0C0C",
"d. c #DB0604",
"f. c #C4110C",
"g. c #CA110D",
"h. c #C71105",
"j. c #D3120D",
"k. c #DC110B",
"l. c #D21207",
"z. c #C40D12",
"x. c #CB0D13",
"c. c #C70916",
"v. c #D30D11",
"b. c #D90B14",
"n. c #C41314",
"m. c #CB1313",
"M. c #C21419",
"N. c #CD1419",
"B. c #C31B1C",
"V. c #CB1A1C",
"C. c #C81A14",
"Z. c #D41313",
"A. c #DC1212",
"S. c #D3141B",
"D. c #D51718",
"F. c #E10C0C",
"G. c #E60C07",
"H. c #E3110B",
"J. c #E20D13",
"K. c #EC0C17",
"L. c #E21212",
"P. c #E51416",
"I. c #C7201B",
"U. c #C31B22",
"Y. c #CB1923",
"T. c #D51720",
"R. c #CB0F20",
"E. c #CF2121",
"W. c #E61220",
"Q. c #89433D",
"!. c #95423D",
"~. c #A3473F",
"^. c #833D45",
"/. c #963D43",
"(. c #A23D43",
"). c #B73E42",
"_. c #8A4847",
"`. c #924343",
"'. c #974948",
"]. c #9C544E",
"[. c #8D4D52",
"{. c #824F54",
"}. c #984C51",
"|. c #875859",
" X c #955D5C",
".X c #995756",
"XX c #88544F",
"oX c #A94847",
"OX c #B7494A",
"+X c #A9564E",
"@X c #A94D51",
"#X c #A55452",
"$X c #A95B5C",
"%X c #A65758",
"&X c #B35354",
"*X c #B45759",
"=X c #B85959",
"-X c #B65051",
";X c #98655C",
":X c #8D635F",
">X c #A9635C",
",X c #B5655E",
"<X c #905B64",
"1X c #A85C63",
"2X c #866261",
"3X c #8D6B6A",
"4X c #8A6766",
"5X c #926C6B",
"6X c #9B6C6C",
"7X c #986567",
"8X c #97726C",
"9X c #976C72",
"0X c #897877",
"qX c #977676",
"wX c #A86768",
"eX c #B76666",
"rX c #A9716B",
"tX c #A57777",
"yX c #B57A78",
"uX c #B06D71",
"iX c #C34D4D",
"pX c #C65756",
"aX c #C15960",
"sX c #C76967",
"dX c #C97877",
"fX c #CC6E6A",
"gX c #7B817C",
"hX c #85827D",
"jX c #9B8378",
"kX c #AB827A",
"lX c #7E7F81",
"zX c #917C82",
"xX c #BD7C80",
"cX c #DD7880",
"vX c #838383",
"bX c #8B8B8B",
"nX c #888786",
"mX c #988487",
"MX c #959594",
"NX c #AD898B",
"BX c #CF8383",
/* pixels */
";XrXtXf |.5XhX0X5XtXnXnXqXtXqX6XtXtXqX8XtXtXtXqXjX0XhX0X0XzXvX0XtX X|.4XtXqX9X9XtX7X X6X|.<Xf 3X5X|.",
"% # , & & X @ q y ^.mXmXyXO o & X X X o o o o X @   @ i NXqXzX3XX = X X o X O & & = * & o 1 O O X X ",
"' ~ ~ ' M._ _ U.U.1.:XkX#.5.5.) ` R R R Y Y ~ ~ H Q E M 8 .XyXy T ' ( / H ) ~ ~ B.K B.( ' Y R Y ~ ( ",
"e.a.y.y.y.F.J.J.J.Y  XkXB m.v.a.v.w.g.m.w.w.a.a.e.x.c._ %.,XdX< K y.y.s.a.q.0.y.k.y.H.k.k.0.a.0.y.y.",
"x.e.y.s.L.s.J.K.J.Y  XyXc v.L.s.a.q.e.j.w.e.v.v.x.r.x.I %.+XdX%.( a.F.J.A.t.y.k.y.F.G.G.u.u.k.t.P.H.",
"x.w.7.e.h.9.a.b.Z.R |.tX5.N.x.q.r.w.w.w.w.w.m.m.V.P R.O.5 eXdX< / w.a.q.m.e.e.e.Z.A.J.L.s.k.A.s.j.a.",
"U.U.~ ~ H R ' ^ ' =.f 3X# W 5.) ) ) ` ~ R ` ` ` W E ! o.@.$XdXn 3.` ~ Y ) ` R U ) ~ I U.B.n.V.V.M.B.",
"; z $ ; $ - - - ; & f 0X7X1 = - - ; - - - ; - - # # # # 1 '.dX8 > > - - $ $ $ $ $ = = > z z c z z z ",
"+X'.].%X$X`.>X]._.7X4Xl MXNXyXyXwX$X%X,X,XeX&X#X].>X>XwXwXrXBXyXeX*X].>XeXwXwX XwX2Xh g }.(.=X=X*X%X",
", & 4 * * , , & X e q i h mXqX+ y , # * 5 b n v < 4 , 8 , , 8 4 7 : < % = 6 , X   jXgXh t : *.2 4 4 ",
"( A _ O.O.' M.C._ ) H n r |.BX[ Q _ ~ ~ P M.M.V.^ ~ C / D ^ J ^ ^ M.I.S D U.' Y =.Q.a g &.~ U.M.^ ^ ",
"y.0.7.T.S.v.L.F.i.v.D.H 8 d oXW x.b.v.Z.i.i.t.i.a.e.q.0.t.A.a.A.a.L.G.G.y.a.P.m.U -.jX;XR Z.v.8.y.s.",
"8.a.7.v.z.e.s.t.b.q.v.I $..XsXN S.b.i.a.q.v.q.q.e.9.v.8.a.a.i.a.a.s.u.G.b.i.b.z.U ,.qX6XR 7.v.a.a.a.",
"n.n.P M.^ C.9.w.P Y.c.! y wXeX[ B.Z.z.n.z.C.n.n.~ G N.x.V.F w.x.n.w.j.y.v.S.N._ B >.4XtXm ^ C.w.Z S ",
"+.R W } } / H  .| V 3.X.r 5X X0 N ` Q  .R R R W N B ` ` 2.W +.+.! U / J ) 5.` o.7 u 0XNX@.W U R H R ",
"# $ # # $ $ - # . # # . {.2XrXo . $ # $ # # . . # # - - . # - $ $ $ $ ; ; $ - # o [.zX|.. # # $ $ $ ",
"wX].@X=X=X,.=X=XoXOX&X@X%XuXeXeX=X+X*X&X+X].5XNXeXfXaX=X=X~.=X=X&XpXpX-XpXOX=X&XeXeXxXuXfX=X=X*X#X1X",
"NXt $.n ..n 2 *.M m %.%...=.b b #.5 ..7 #.  0XqXw &.;.X.{ 1.%.> M 1.1.N &.M &.M %.#.: %.M =.v 4 y wX",
"yX8 M H ~ ^ D ^ J D ~ ~ I _ C C B.M._ ) ` %.|.tX1.F M.^ w.D.m.N.z.n.x.n.C.F N.P F ^ D _ P F n.` 1 _.",
"%X4 c K e.7.A.0.9.7.Z w.q.x.9.h.q.a.q.x.n.B d yXY q.v.i.t.H.G.F.s.y.s.y.a.y.A.t.a.a.Z.w.v.8.L.V.#._.",
"uX7 U n.a.t.y.l.l.9.7.q.q.v.0.j.a.7.e.m.V.N f |.Y v.a.a.s.H.d.d.s.y.s.y.a.a.k.t.a.q.w.w.e.a.t.^ 7 [.",
"wX6 E _ w.m.w.f.h.9.S z.z.x.w.f.Z F ^ ^ L b f 5XB P G n.m.g.j.Z.w.w.w.w.f.f.m.w.w.F ^ ^ G n.S ) w s ",
"7Xe ..o.! +.` R R ` R Q ! ` R Q U E x N 6.8 g l 9 m N B B R 5.Y W W ` Y ` ` ) ` Y U B B W W R X.t u ",
"tX  # $ - - # - $ $ # $ $ - - - $ $ - # . y |.{.$.# . # # $ > # . # - - - - - ; - ; $ $ $ $ - #   d ",
"#X&XoXOXOXoXoX:.wXuX_.eX&XpXpXiX-XpXOXpXpXoX*XdX@XsXoXOXpX-X$X_.;X>X@XOXpXOXiX).6.OX).).).).OXoX@X%X",
"&.1.&.&.&.&.=.<.t rX6Xt b 3.E 5.5.2.1.o.5.} B 4.M 4.{ 4.T &.y rXrXy =.5.2.2.5.W 2.5.3.3.2.1.&.&.b b ",
"P G C C D n.P ! #.eX%X9 ! M.E.g.h.D.n.^ C.A A C Y c ' K w.U.;.`.sXN O.c.S.N.n.V.n.m.V.M.^ ~ H H ~ ~ ",
"q.7.f.9.8.y.q.M.*.,X%X2 I v.y.y.t.L.b.a.a.7.h.9.D F C.e.p.w.n :.pXW T.b.p.a.Z.j.q.q.v.e.Z F A A F S ",
"q.r.n.S 8.0.8._ ..$X$Xb ~ 7.0.k.y.t.b.8.i.y.7.w.z.F 7.8.P.T.M 9 =Xm _ x.e.w.g.h.8.0.v.q.e.x.w.w.Z Z ",
"_ ~ Y ~ n.C.J U $.wX[.w 3.C E.n.C.f.n.n.m.N.^ ' L C ' K z.5.#.y ,X9 B L ' ( C ' D F ^ _ _ M.M._ ~ ~ ",
"5 @.*.&.N m n 5 t 5X5X+ y %.n N { { V 1.o.X.*.*...*.n [ n $.@ d :Xt ..&.n [ ] [ n m n b b b M n M M ",
"_.[././.oXoXoX>._.7XtX7X>.,.,.,.!.<.=.;.=.(.<./.:.^._.>.!.!.u d XXrX'.,.,.:.:.:.,.,.:.,.,.:.,.$.,.>.",
"|.7X`.~.@X@X-X&X$XeXuX'.'.oXoX-X=X-XpXpXiXoX,.@X.Xd 6X7X@XoXy Q.dXBX=X@X@XsXeX=X&X&XOXoX=X-XOX&X%X1X",
"9Xt $.4.6.X.3.1.4.M &.4.&.M N 4.4.4.5.5.} } 3.;.u {.6X+ #.4.&.4.N 4.M 6.fXOX[ 6.6.4.3.2.1.2.5.=.y  X",
"$X* T J D P Y.F G F F M.C.A F C.F C.m.D.Z.f.n.Y $.].>Xv L Z G C.Z.g.F A ^ ( A C C.n.f.w.g.f.n.R w 1X",
"#Xv A e.q.i.b.a.e.Z.8.8.a.A.a.a.a.a.q.a.t.8.0.J v -.+Xm V.i.a.k.F.u.s.0.e.j.e.Z.a.a.s.s.P.k.j.( ..[.",
"#Xb D j.Z.v.q.a.q.7.a.A.t.y.a.a.q.q.x.v.a.v.e.' ] >.oX{ x.P.q.a.J.p.a.v.8.q.7.b.A.8.s.A.i.8.a.~ 6 ^.",
"uX9 T D ~ _ I _ ^ D B.E.C.^ ~ _ ) ) ` C C ) ) 1.y _.eX5 +.M.) B.F M.M.B.I O._ _ U.M.V.V.M.I ~ N 3  X",
"qXr 3 5 6 6 = 4 4 * = * 7 5 3 1 1 4 4 * * , , O r 2X7Xt 1 7 * * 4 #.: : 9 6 = ..: v v : 5 : % 3 i f ",
"9X7X`.!.>..X`.u ].'.}..X'.>.6X9X X}.`.`._._..X X|.7X7XuX}.`.Q.Q.Q.>.:.`.[.[.[.u `.'.'.:.>.Q.'._.[.<X",
"*XoX] ] $.$.$.#.] -.-.-.<.!.2X3XwXy v v 9 $.:.$.,.=XcXsXoX@.0 -.@.<.=.:._.7X7X_.;.%.%.< y 9 0 ] <.(.",
"W W R } 2.| T T N | { { B #.f 8X9 1.2.Q W { 1.N E +.+.5.2.1.| { N W 2.1.y ;X X$.X.Q Q U X.1.{ 2.E U ",
"w.e.D.Z.N.N.w.m.^ ^ M.V.n.o.XX6XN M.w.m.D.f.G w.w.e.q.S.S.D.w.S m.m.S.I.] +X#X#.~ Z.Z.Z.P M.Z S g.9.",
"y.s.F.d.s.J.s.p.v.q.8.a.b.+..XrXU q.A.L.y.L.a.a.s.s.s.F.p.p.s.F.p.p.p.m.4.oXsX&.f.s.F.J.v.S.a.a.y.u.",
"y.k.d.d.b.J.L.y.0.a.a.A.s.~ p XXB x.a.s.i.b.a.8.y.0.y.t.s.p.F.J.J.p.J.w.V !.sXn n.d.s.p.b.S.v.s.u.k.",
"9.C.w.q.x.x.j.0.w.e.w.w.e.5.|.6Xn B.Z m.S.w.n.F m.h.g.e.S.x.a.a.Z.a.P.n.n @XeX=.B.e.Z.v.N.N.m.w.e.g.",
"H / ~ ~ ) ` ' ^ ^ ^ H H ~ 1.f 3X8 N R ~ ) Y R U  .( ( ~ ) ) ' I.' ( V.~ #.}.}...` D ^ ^ ) _ ~ H Y Y ",
"% $ > > : 5 - - - - $ % - 8 f mX Xo = > - % # % $ $ $ - $ % $ - > $ x - t [.wXy 5 ; ; > > > > $ % = ",
"8X2XqX3X5X8Xf f 4X3X3X3X4X3Xk 0XqX3X3X3X3X3XqX5X8X4X|.4XqX3X2X5X4Xd f 4X0X0XqXmXf 4X5X3X2X2X3X3Xf j ",
"vXk nXvXvXlXk k vXvXvXvXk vXvXbXbXvXvXvXk vXnXnXh l k nXbXvXvXMXnXk gXk nXnXMXbXvXnXnXvXgXgXhXk k hX"
};
