/* XPM */
static char *_6b11d4b2e0c4f0c9f27fd1fc2e23247VWVYFHwoHxZ0OGFp[] = {
/* columns rows colors chars-per-pixel */
"50 50 251 2 ",
"   c #3B0C0B",
".  c #3A0706",
"X  c #3A1817",
"o  c #3B0D10",
"O  c #440302",
"+  c #4C0000",
"@  c #450906",
"#  c #430A0B",
"$  c #4B0D0C",
"%  c #4D0708",
"&  c #540101",
"*  c #5B0001",
"=  c #550509",
"-  c #540C0C",
";  c #5B0C0C",
":  c #590905",
">  c #5C120D",
",  c #55110C",
"<  c #460E11",
"1  c #590B13",
"2  c #4A1717",
"3  c #551314",
"4  c #5D1312",
"5  c #551C1C",
"6  c #5C1A1C",
"7  c #5B1717",
"8  c #49120B",
"9  c #630102",
"0  c #640409",
"q  c #6D0D0C",
"w  c #660806",
"e  c #740C0B",
"r  c #7B0D0D",
"t  c #7B0808",
"y  c #62120E",
"u  c #6B120E",
"i  c #7B120C",
"p  c #73120D",
"a  c #620A12",
"s  c #740F11",
"d  c #7B0E12",
"f  c #641313",
"g  c #6B1413",
"h  c #631A14",
"j  c #641A1A",
"k  c #6B1B1C",
"l  c #691618",
"z  c #731515",
"x  c #7C1414",
"c  c #741914",
"v  c #7C1B14",
"b  c #74161B",
"n  c #7B151A",
"m  c #731B1B",
"M  c #7B1B1B",
"N  c #4C201F",
"B  c #6C221B",
"V  c #66231C",
"C  c #74231C",
"Z  c #7A211A",
"A  c #7C2315",
"S  c #511E21",
"D  c #651B23",
"F  c #7A1E22",
"G  c #592424",
"H  c #56272A",
"J  c #57342C",
"K  c #4A3635",
"L  c #533535",
"P  c #533C3A",
"I  c #5B3D3B",
"U  c #5B3637",
"Y  c #4B2D27",
"T  c #642424",
"R  c #6C2424",
"E  c #6B2923",
"W  c #6C2C2C",
"Q  c #662A29",
"!  c #732C2A",
"~  c #772626",
"^  c #6B332C",
"/  c #68322B",
"(  c #79312A",
")  c #672D35",
"_  c #633332",
"`  c #6B3433",
"'  c #6D3B34",
"]  c #6C3C3B",
"[  c #64393B",
"{  c #753533",
"}  c #7C3434",
"|  c #7B3B33",
" . c #73353A",
".. c #743B3A",
"X. c #7B3B3B",
"o. c #743A33",
"O. c #702E32",
"+. c #5A423E",
"@. c #46483D",
"#. c #68443C",
"$. c #74433E",
"%. c #7E423E",
"&. c #583D41",
"*. c #4D3A40",
"=. c #653D43",
"-. c #763A41",
";. c #4C4C4C",
":. c #464745",
">. c #5D4343",
",. c #5A4A4C",
"<. c #545454",
"1. c #585856",
"2. c #5C5C5B",
"3. c #585655",
"4. c #51524D",
"5. c #624444",
"6. c #6D4445",
"7. c #654A46",
"8. c #634C4C",
"9. c #6B4C4B",
"0. c #6A4948",
"q. c #7C4443",
"w. c #7A4A4C",
"e. c #774647",
"r. c #69544B",
"t. c #74514D",
"y. c #79524B",
"u. c #684E54",
"i. c #754D51",
"p. c #645253",
"a. c #6A5657",
"s. c #785555",
"d. c #5E605F",
"f. c #7D6259",
"g. c #675763",
"h. c #7B5D62",
"j. c #614F65",
"k. c #6F676B",
"l. c #8B0403",
"z. c #830B04",
"x. c #8C0B05",
"c. c #8A040B",
"v. c #840C0B",
"b. c #8B0C0C",
"n. c #830200",
"m. c #940503",
"M. c #9C0403",
"N. c #940B05",
"B. c #9C0B05",
"V. c #94050B",
"C. c #9B060A",
"Z. c #940C0B",
"A. c #9C0C0B",
"S. c #84130D",
"D. c #8A120D",
"F. c #831608",
"G. c #93120D",
"H. c #9C120D",
"J. c #971206",
"K. c #830E12",
"L. c #8B0D11",
"P. c #880C16",
"I. c #940C13",
"U. c #9C0C13",
"Y. c #960A15",
"T. c #841313",
"R. c #8B1313",
"E. c #831A15",
"W. c #8B1A15",
"Q. c #85141A",
"!. c #8B141B",
"~. c #831B1C",
"^. c #8B1B1C",
"/. c #931313",
"(. c #9B1313",
"). c #931319",
"_. c #9B151A",
"`. c #931A1D",
"'. c #981A18",
"]. c #A40403",
"[. c #AB0404",
"{. c #A40A05",
"}. c #AA0A05",
"|. c #A3050B",
" X c #AB050B",
".X c #A30B0C",
"XX c #AB0B0B",
"oX c #B20505",
"OX c #B30804",
"+X c #B3060A",
"@X c #B20A0B",
"#X c #B90808",
"$X c #A2110E",
"%X c #AB120E",
"&X c #A51105",
"*X c #B4110B",
"=X c #A40512",
"-X c #AD0611",
";X c #A30B12",
":X c #AB0B12",
">X c #B40C14",
",X c #B70A13",
"<X c #A31313",
"1X c #AB1214",
"2X c #A21717",
"3X c #B61215",
"4X c #83211D",
"5X c #91211F",
"6X c #841C22",
"7X c #8B1A22",
"8X c #881522",
"9X c #961C23",
"0X c #951723",
"qX c #A31521",
"wX c #852B2C",
"eX c #892526",
"rX c #912324",
"tX c #922C2B",
"yX c #84322D",
"uX c #892E32",
"iX c #932E33",
"pX c #833333",
"aX c #8C3433",
"sX c #8A353A",
"dX c #833C3A",
"fX c #8B3A3B",
"gX c #8A3837",
"hX c #953938",
"jX c #C2080D",
"kX c #8A443C",
"lX c #90403F",
"zX c #843E41",
"xX c #8A3A43",
"cX c #983E42",
"vX c #A43D43",
"bX c #834343",
"nX c #8C4344",
"mX c #834A49",
"MX c #884847",
"NX c #964948",
"BX c #88534A",
"VX c #96534D",
"CX c #924E54",
"ZX c #875455",
"AX c #975759",
"SX c #824E50",
"DX c #A34847",
"FX c #A85255",
"GX c #995C63",
"HX c #AA5F63",
"JX c #836266",
/* pixels */
"I &.,.K J I 4.4.>.8.j.j.u.8.r.7.u.u.u.u.i.t.t.t.a.p.a.3.3.p.g.u.i.6.[ 7.u.8.,.8.0.6.[ 6.L &.K *.P K ",
". .   . O @   o 5 H g.g.i.  . @ # # # @ @ @ @ @ . .     JXa.a.5.$ + O @ # # # # $ O + - @ # . o . . ",
"x e e T.b.Z.v.R.v.M 6.s.C E.'./.b.R.S.S.S.v.b.b.S.E.d M 4 ' ZXE E.G.G.b.v.S.S.b.G.b./.b.S.r e e e e ",
"l.l.l.N.|. X].}.%Xt ` y.i N.%X].{.{..XB.B.B.{.}.M.A.C.I.c kXBX: J.}.}.{.M.M.M.].}.].XXM.B.m.N.l.l.l.",
"V.l.N.N.A.|.XX}.M.R._ y.i <XXXXX[.[.{.{.{.{.+X@X{.|.-XV.M | BXC H.}.}.XXXX{.}.}.[.[.}.{.{.M.A.m.C.N.",
"c.c.l.n.b.l.A.M..XT.#.s.~.V.U.;X].].B.B.B.{. XXX<XV.=XqXg mXVXy G.].B.A..XB.M.|..X.X.X;XA.C.A.N.Z.Z.",
"P.Q.K.x n x W.R.R.M U 0.; !.0X)./.R.R.R.R./.(./.T.T.).Q.j bXAX; `.(.R.R.D.D.D.L.L.L.L.)./.I.)./.K.T.",
"& & + & + + & & * % I u.e.1 = * * * * * * 9 9 * & & & & $ ` AXj 9 9 * & & * * & * & & & 0 * 9 9 * * ",
"] _ ` -.' ` $...` =.p.3.k.k.JXZXmXbXzXbXnXnXzXX...mXbXmXSXw.GXCXCXzXX.%.q.q.q.e.6.9.K P ] D zX} .. .",
"8 @ % 1 = & , - $ 5 2 X ;.g.t.2 6 - = ; f l g f ; - % 4 ; = f a 1 ; ; & % , , #   p.1.@.2 ; k ; - $ ",
"D.l.L.).A.B.$XA./.I.v.z N 5.VXv R.I.Z.I.(.(.(.(.H.Z.z.G.x.Z.Z.Z.I._.1X|.N.G.(.K.z ^ Y J M Y.Z.x.x.z.",
"M.M.M.-X+XoX#XOX XXX Xb.7 G ( S.$XXX@XXX[.[.[.}.XX{.{.].].*XXXXXXX@XjXjXOX}.@X;XT.( r.#.R.|.{.].M.{.",
"M.M.M.|. X[.OX[.@X].>X/.D $.VXi 1X@X[.].[.}. X[.].].}.].].XX}.{.{. X#X#X[.}.@X;Xt B r.9.T.=X.Xm.M.B.",
"Z.Z.Z.U.;X|.{.B.A.;X;Xv.6 s.mXZ _.XX.X|..X.X.XA.A.m.:X.X<XA.A..XC.;XXX}.{.%X1XU.8XT r.f.n V.Z.G.l.x.",
"x x x T.!.T.F.F.T.Q.!.6XG i.6.3 x /.W.W.R.T.R.T.v i )._.^.E./.).L.T.R.D.D.G.).Q.a ) p.a.D 7XE.i r x ",
"O + + + & & & + + + * O  .6.w.# + & & + & & + O O + * * + & * * * & & * * * * * %  .s.5.% + + + + + ",
"9.[  .dXdXB kXgXpXsXsXxXxXMXMXMXMXdXdXnXdX` s.h.MXNXcXfXfXyXfXxXsXlXfXgXhXaXgXsXNXMXZXZXCXzXdX%. .-.",
"h.N 6 l m w w c z b b F n 6Xb m k a g f l $ ,.g.j v M n E.E.M w n ~.~.x E.x ~.n M z w b m ~ y - G e.",
"ZX3 b r /.N.m.(.b.b.L.).U.U.b.x._.A.(.Z./.q 5.s.x A.2X<X{.3X1XA..X.X.X{..X{.%XB.A.C.U.U.A.Z.A.^.- H ",
"..; t V.XX].@XXXA.N.m..X X X{.{.].}.M..X.XE.#.t.D.]. X X[.OXOX@X+X#X#XOXOXOX#X[.[.[.XX]. X].@X2Xk _ ",
"MXf t |.@X[.@X[.{.M.M. XoXoX[.&X{.}.M.B.B.v.J #.R. X X XOX*X].}.OXoX@X}.}.[.*X].}.}.M..X{.XX[.U.f [ ",
"q.4 T.U..X}.XX.X<XA.C.;X X}.{.&XN.m.N.(._.e I 9.e U.U.C..X%XB..XA..X.XA.$XB.<XA.B.A.Z.Z.Z.N.C.R.7 H ",
"6.$ b K.v.R.T.T.Q.!.Q.!.L./.D.D.v.r r T.x j &.>.D n x d T.S.^.7XP.!.T.K.R.R.!.R.R.K.T.r ^.T.!.x 5 H ",
"s.. + & & & & + & & & & & * * * & * & & & j =.=.6 & + & * & * & + & & & 9 * * * & * & & & & & & . H ",
" ...pXyXyXyX~ B MXmX..bXfXhXhXhXgXhXiXiXcXpXxXAXpXDXwXuXhXaXMX) q.MXfXuXvXiXuXaXwXaXwXuXuXwXpX( X.X.",
"F m c c v 4X4X~ 3 BXq.T b 6X^.rXeX6X9X!.rX~.s eXM M r rXT.eXD e.mXE M ~.9X`.5XE.~.eX^.^.^.~.Z C g g ",
"c.b.z.z.x.Z.U./.m MX| f !.U.U.<XU.<X;X|.2Xx.z.z.z.z.2XN.M.(.b } NXv /.<XXXXX1XA.H.$X1X.X.XA.b.D.D.v.",
"|.C.N.N.|. X XU.M kXdXq V.=X>X X].3X+X+X}.m.J.J.x.x.&X}.#X.Xx k hXE.2X}.OXoX[.}.].].OX[.].].m.x.Z.Z.",
"C.C.N.N.M.|. XU.z fXfXz Y.|.XX[.[. X,X[.].{.M.H.N.B.].[.,X1XM f hXi U..X XOX[.XX].].}.[.[.{.m.Z.l.l.",
"L.L././.(.U.Y.!.F bX{ f `.Z.Z.$XH.H..X|..X<XA.G.b.b.H.m..X'.m T NXu e /.C.A.H.G.Z.Z.A.A.U.(.G./.b.L.",
"f g z c c c g 4 5 y.0.2 h z v v A 4Xe ^.7X~.6XM b l q ~.p R < U 6.H 7 k z c M c g l g c b b z g z c ",
"_ ` ! ~ ( } { ) _ 9.t.$.^ B ~ C ( B m F F ~ m ~ D ) O.W ! W H I [ w...Q W R R ! ! ! R ! ~ R ~ k E E ",
"=.6.^ } ! pXxXdXbXmXNX} ! } pXaXgXaXvXhXiXaXwXpX-.) w.w.{ } 6 W CXHXnX} dXVXkXnXfXaXaXaXsXsXsXsX .-.",
"5.G h Z eXn 7XeXM c E.rXM s x rX5X^.0X0X^.E.^.eXR  .6.2 C ~.n eXrX~.x tXDXaXc 4XtXrX^.^.^.^.^.F G =.",
"] 4 i l.H.C.<XV.Z.N.m.$X2XZ.A.$XB.$XA.<X$XB.$XD.m X.mX> R.N.A.<X.X|.N.N.(.(.Z.A.<X.X|.|.|.A.A.E.3 [ ",
"o.; b.{. X X X.X{.}.[.[.{.{.XX[.].}.}.XXXX{.{.Z.z E kXZ U.[. X X+X@X}.{.{.].].[.}.[.OXOX@XXX{.R.6 U ",
" .; b.|. X X=X:X|.{.#X@X X X X>X X X:X.X|..X;X_.l V | m U.,X-X-X,X@X].XX]. X X>X X@X@X@X@X}.B.v.3 H ",
"e.6 Q.c.Y.Y.).L./.x.H.(._._.I.Y.I.L.).L.v.R.L.~.j ] mX4 !.2XI.(.V.<X(._.I._.Y.Y.Y.(.(.(.A.Z.v.u < L ",
",.X $ ; f - = - , : : : > f 1 - ; ; ; - % $ - $ 2 5.7.N 3 f = > f u ; y - - ; f ; y y ; : : - 8 X L ",
"8.=._ Q T ` Q G ' ' ^ o.{ ` 6.s.....^ ^ / ' $.$.] w.6.y.` { Q / E E R W ..] J G ^ ^ / Q T Q / ` _ [ ",
" .W j h B k j h 7 V B B C ! 6.t.bXk : y > h ~ f ~ cXFXNX( h h B u Z z ~ o.$.w.Q V l h : y y 4 f R R ",
"x n x x E.x x v M Z v x T.F U 9.f x W.W.E.x x ^.b./.`.`.^.^.E.S.D.`.9X~.6 $.' V M E.E.i T.E.x n e e ",
"n.Z.Z.A.A.C.N.Z.G.b.Z.A.;X!.] y.T.A.<XB.$X<Xm.|.XXXXXX.X:X1X.X{.].|.:X'.l | | C b.U.;XA.Z.Z.c.c.b.v.",
"N.A.A.|.}.}.{.M.A.C.|.}.-X).[ y.T.].*X%X}.>X,X[.OXOX@X@X@X@XOXOX#XOX X2X~ ( lXv Y.-XXXXX|..XV.Z.Z.N.",
"x.N.m.m.].XX|.C.C.A.|..X-X!.J #.r C..XXX X-X>X|.{.{.].[.XX,X+XOX#X@X-XV.l ! NXz I.|. X{.M.;XY.Z.Z.Z.",
"t v.c.c.Z.A.A.Z.Z.Z.A.A.;X7X[ 7.z /.N.A.<X=X=XA.$XH.A.A.;X;X X}.XX|.1XI.u { dXb I.V.Z.Z.Z.U.b.v.v.z.",
"q p d r v.v.v.v.v.v.z.z.x.M I r.4 i S.W./.c.c.I./.G.G./././.(.2XH.N._.!.k { } l E.v.S.S.b.b.r e q q ",
"O O + + = & & & & & & & * 4 P a.] % + & & 0 = & * & & & & & * * * * w & 5 _ q.3 - + : & & & & O O . ",
"+.P >.P >.>.P L >.5.5.7.5.8.,.3.p.8.7.9.5.9.9.9.9.7.+.7.t.9.5.0.5.L I >.p.,.p.p.L >.>.+.I P P P K K ",
";.:.;.;.<.;.;.;.<.<.<.1.<.1.1.2.2.1.1.2.<.1.2.2.:.;.<.1.2.1.1.d.d.<.1.1.2.2.2.2.1.1.1.1.4.;.;.:.:.:."
};
